<svg width="162" height="54" viewBox="0 0 162 54" fill="none" xmlns="http://www.w3.org/2000/svg">
<path d="M11.4323 52.8187C11.0198 52.8187 10.6173 52.8134 10.2081 52.8042C9.36031 52.7932 8.51452 52.7196 7.67765 52.584C6.89731 52.45 6.14138 52.2007 5.43477 51.8444C4.73465 51.491 4.09608 51.0276 3.54353 50.4719C2.98298 49.9229 2.5163 49.286 2.16197 48.5867C1.80375 47.8828 1.55583 47.1283 1.42687 46.3495C1.28759 45.5126 1.21224 44.6664 1.20146 43.8182C1.19288 43.5335 1.18164 42.5855 1.18164 42.5855V11.3998C1.18164 11.3998 1.19361 10.4664 1.20153 10.1921C1.21185 9.34525 1.28677 8.50038 1.42562 7.66484C1.55482 6.88389 1.80293 6.12721 2.16135 5.421C2.51437 4.72213 2.97846 4.08481 3.53564 3.53377C4.09218 2.97749 4.7328 2.51172 5.43411 2.15344C6.13909 1.79823 6.8936 1.55069 7.67236 1.41912C8.51197 1.28218 9.3607 1.20815 10.2114 1.19764L11.433 1.18115H150.56L151.796 1.1983C152.639 1.20829 153.48 1.28166 154.312 1.41779C155.099 1.55102 155.861 1.80028 156.574 2.15739C157.979 2.87943 159.122 4.02177 159.843 5.4243C160.196 6.12563 160.44 6.87614 160.568 7.65034C160.708 8.49274 160.787 9.34425 160.803 10.1981C160.807 10.5804 160.807 10.9911 160.807 11.3998C160.818 11.906 160.818 12.3879 160.818 12.8737V41.1274C160.818 41.6178 160.818 42.0964 160.807 42.5789C160.807 43.0179 160.807 43.4201 160.802 43.834C160.786 44.6726 160.709 45.5089 160.571 46.3362C160.444 47.1207 160.198 47.881 159.84 48.5907C159.483 49.2825 159.019 49.9138 158.465 50.4614C157.912 51.02 157.272 51.4861 156.57 51.8418C155.859 52.2009 155.098 52.4511 154.312 52.584C153.475 52.7203 152.629 52.7939 151.781 52.8042C151.385 52.8134 150.97 52.8187 150.567 52.8187L149.099 52.8214L11.4323 52.8187Z" fill="black"/>
<path d="M33.5315 27.4059C33.546 26.2791 33.8462 25.1743 34.404 24.1942C34.9618 23.2142 35.7591 22.3908 36.7218 21.8006C36.1102 20.9296 35.3034 20.2129 34.3655 19.7072C33.4275 19.2016 32.3843 18.921 31.3186 18.8877C29.0452 18.6498 26.8413 20.2443 25.6829 20.2443C24.502 20.2443 22.7184 18.9114 20.7977 18.9508C19.5554 18.9908 18.3446 19.351 17.2834 19.9964C16.2222 20.6418 15.3468 21.5503 14.7423 22.6334C12.1241 27.1538 14.0771 33.7972 16.5851 37.4511C17.8399 39.2403 19.3065 41.2389 21.2254 41.1681C23.1032 41.0904 23.8045 39.974 26.0712 39.974C28.3168 39.974 28.9748 41.1681 30.9326 41.123C32.9476 41.0904 34.2171 39.3258 35.4279 37.5197C36.3295 36.2448 37.0233 34.8357 37.4835 33.3448C36.3129 32.851 35.3139 32.0246 34.6111 30.9685C33.9083 29.9124 33.5328 28.6734 33.5315 27.4059V27.4059Z" fill="white"/>
<path d="M29.8336 16.4846C30.9323 15.1694 31.4735 13.4789 31.3425 11.7722C29.664 11.948 28.1135 12.748 27.0001 14.0127C26.4557 14.6305 26.0387 15.3493 25.773 16.128C25.5073 16.9066 25.3982 17.7298 25.4517 18.5506C26.2913 18.5592 27.1218 18.3777 27.8808 18.0199C28.6399 17.662 29.3076 17.137 29.8336 16.4846Z" fill="white"/>
<path d="M57.268 36.6384H50.86L49.3211 41.1696H46.6069L52.6765 24.4053H55.4965L61.566 41.1696H58.8056L57.268 36.6384ZM51.5237 34.5474H56.6031L54.0991 27.1936H54.029L51.5237 34.5474Z" fill="white"/>
<path d="M74.6745 35.059C74.6745 38.8572 72.6359 41.2974 69.5594 41.2974C68.7801 41.3381 68.0051 41.1591 67.3231 40.7809C66.641 40.4027 66.0796 39.8406 65.703 39.159H65.6448V45.2129H63.1289V28.947H65.5642V30.9799H65.6105C66.0043 30.3016 66.5753 29.7425 67.2625 29.362C67.9497 28.9815 68.7275 28.7939 69.5132 28.8191C72.6239 28.8192 74.6745 31.2713 74.6745 35.059ZM72.0885 35.059C72.0885 32.5844 70.8061 30.9575 68.8495 30.9575C66.9272 30.9575 65.6342 32.6187 65.6342 35.059C65.6342 37.5217 66.9272 39.1709 68.8495 39.1709C70.8062 39.1709 72.0885 37.5559 72.0885 35.059Z" fill="white"/>
<path d="M88.1647 35.0589C88.1647 38.8571 86.1261 41.2974 83.0497 41.2974C82.2704 41.3381 81.4953 41.1591 80.8133 40.7809C80.1313 40.4027 79.5698 39.8406 79.1932 39.159H79.135V45.2129H76.6191V28.947H79.0544V30.9799H79.1006C79.4945 30.3016 80.0655 29.7424 80.7527 29.362C81.4399 28.9815 82.2177 28.7939 83.0034 28.8191C86.1142 28.8191 88.1647 31.2713 88.1647 35.0589ZM85.5788 35.0589C85.5788 32.5844 84.2964 30.9575 82.3397 30.9575C80.4175 30.9575 79.1245 32.6187 79.1245 35.0589C79.1245 37.5216 80.4175 39.1709 82.3397 39.1709C84.2964 39.1709 85.5788 37.5559 85.5788 35.0589H85.5788Z" fill="white"/>
<path d="M97.0808 36.4986C97.2672 38.1611 98.8867 39.2526 101.1 39.2526C103.22 39.2526 104.746 38.161 104.746 36.662C104.746 35.3608 103.826 34.5817 101.647 34.0477L99.4684 33.5243C96.3814 32.7808 94.9483 31.3411 94.9483 29.005C94.9483 26.1125 97.4761 24.1257 101.065 24.1257C104.618 24.1257 107.053 26.1125 107.135 29.005H104.595C104.443 27.332 103.056 26.3221 101.03 26.3221C99.003 26.3221 97.6162 27.3439 97.6162 28.831C97.6162 30.0162 98.502 30.7136 100.669 31.2475L102.521 31.701C105.97 32.5144 107.403 33.8961 107.403 36.3482C107.403 39.4846 104.898 41.4489 100.913 41.4489C97.1852 41.4489 94.668 39.5307 94.5054 36.4985L97.0808 36.4986Z" fill="white"/>
<path d="M112.833 26.0544V28.9469H115.164V30.9337H112.833V37.6718C112.833 38.7186 113.3 39.2064 114.324 39.2064C114.601 39.2016 114.877 39.1822 115.152 39.1483V41.1233C114.691 41.2091 114.223 41.248 113.754 41.2393C111.273 41.2393 110.305 40.3098 110.305 37.9394V30.9337H108.523V28.9469H110.305V26.0544H112.833Z" fill="white"/>
<path d="M116.514 35.0591C116.514 31.2134 118.785 28.7969 122.327 28.7969C125.88 28.7969 128.141 31.2134 128.141 35.0591C128.141 38.9153 125.892 41.3213 122.327 41.3213C118.762 41.3213 116.514 38.9153 116.514 35.0591ZM125.578 35.0591C125.578 32.421 124.365 30.8641 122.327 30.8641C120.288 30.8641 119.077 32.4329 119.077 35.0591C119.077 37.7077 120.288 39.2528 122.327 39.2528C124.365 39.2528 125.578 37.7077 125.578 35.0591H125.578Z" fill="white"/>
<path d="M130.215 28.9469H132.615V31.0273H132.673C132.835 30.3775 133.217 29.8033 133.754 29.4012C134.291 28.999 134.95 28.7935 135.621 28.819C135.911 28.818 136.2 28.8494 136.483 28.9126V31.2593C136.117 31.1478 135.735 31.0966 135.353 31.1077C134.987 31.0929 134.623 31.1572 134.285 31.2961C133.947 31.435 133.642 31.6452 133.393 31.9124C133.144 32.1795 132.956 32.4973 132.842 32.8438C132.728 33.1903 132.69 33.5573 132.731 33.9198V41.1694H130.215L130.215 28.9469Z" fill="white"/>
<path d="M148.083 37.5795C147.744 39.7983 145.577 41.321 142.805 41.321C139.239 41.321 137.026 38.9388 137.026 35.1168C137.026 31.2831 139.251 28.7966 142.699 28.7966C146.09 28.7966 148.223 31.1196 148.223 34.8255V35.6851H139.566V35.8367C139.526 36.2865 139.583 36.7396 139.732 37.166C139.881 37.5924 140.119 37.9823 140.431 38.3097C140.743 38.6371 141.121 38.8947 141.54 39.0652C141.96 39.2357 142.411 39.3153 142.863 39.2987C143.458 39.3542 144.054 39.2169 144.564 38.9072C145.074 38.5974 145.471 38.1318 145.694 37.5795L148.083 37.5795ZM139.578 33.9316H145.706C145.728 33.5272 145.667 33.1224 145.525 32.7428C145.383 32.3632 145.164 32.0168 144.882 31.7256C144.6 31.4343 144.26 31.2043 143.885 31.0501C143.509 30.8959 143.105 30.8208 142.699 30.8295C142.29 30.8271 141.883 30.9056 141.504 31.0605C141.125 31.2154 140.781 31.4436 140.49 31.732C140.2 32.0205 139.97 32.3633 139.814 32.7408C139.657 33.1184 139.577 33.5231 139.578 33.9317V33.9316Z" fill="white"/>
<path d="M51.2083 11.7867C51.7358 11.749 52.265 11.8284 52.758 12.0194C53.2509 12.2103 53.6952 12.508 54.0588 12.8909C54.4224 13.2737 54.6963 13.7323 54.8606 14.2336C55.025 14.7348 55.0757 15.2661 55.0092 15.7893C55.0092 18.3627 53.6145 19.842 51.2083 19.842H48.2905V11.7867H51.2083ZM49.5452 18.7028H51.0682C51.4451 18.7252 51.8222 18.6636 52.1723 18.5224C52.5223 18.3812 52.8363 18.1639 53.0915 17.8864C53.3467 17.6089 53.5366 17.2781 53.6474 16.9182C53.7582 16.5582 53.7872 16.1782 53.7321 15.8057C53.7832 15.4347 53.7513 15.057 53.6388 14.6997C53.5262 14.3424 53.3358 14.0143 53.0813 13.739C52.8267 13.4637 52.5141 13.248 52.1661 13.1072C51.8181 12.9665 51.4431 12.9043 51.0682 12.9251H49.5452V18.7028Z" fill="white"/>
<path d="M56.4267 16.7999C56.3884 16.4004 56.4342 15.9973 56.5612 15.6165C56.6883 15.2357 56.8937 14.8856 57.1644 14.5886C57.4351 14.2917 57.765 14.0544 58.133 13.892C58.5011 13.7296 58.8991 13.6458 59.3015 13.6458C59.7039 13.6458 60.1019 13.7296 60.47 13.892C60.838 14.0544 61.1679 14.2917 61.4386 14.5886C61.7093 14.8856 61.9147 15.2357 62.0418 15.6165C62.1688 15.9973 62.2146 16.4004 62.1763 16.7999C62.2154 17.1998 62.1701 17.6034 62.0434 17.9848C61.9167 18.3662 61.7114 18.717 61.4406 19.0145C61.1699 19.3121 60.8397 19.5499 60.4713 19.7126C60.1029 19.8753 59.7044 19.9594 59.3015 19.9594C58.8986 19.9594 58.5001 19.8753 58.1317 19.7126C57.7633 19.5499 57.4331 19.3121 57.1624 19.0145C56.8916 18.717 56.6863 18.3662 56.5596 17.9848C56.4329 17.6034 56.3876 17.1998 56.4267 16.7999V16.7999ZM60.9389 16.7999C60.9389 15.4822 60.3453 14.7116 59.3035 14.7116C58.2577 14.7116 57.6695 15.4822 57.6695 16.7999C57.6695 18.1281 58.2578 18.8928 59.3035 18.8928C60.3453 18.8928 60.9389 18.1228 60.9389 16.7999H60.9389Z" fill="white"/>
<path d="M69.8192 19.8419H68.5711L67.3112 15.3647H67.216L65.9614 19.8419H64.7253L63.0449 13.7629H64.2652L65.3572 18.4015H65.4471L66.7004 13.7629H67.8546L69.1079 18.4015H69.2031L70.2898 13.7629H71.4929L69.8192 19.8419Z" fill="white"/>
<path d="M72.9058 13.763H74.0639V14.7287H74.1538C74.3063 14.3818 74.5635 14.0911 74.8896 13.8969C75.2157 13.7028 75.5944 13.6149 75.9729 13.6456C76.2696 13.6234 76.5674 13.668 76.8444 13.7761C77.1214 13.8843 77.3704 14.0531 77.573 14.2703C77.7757 14.4874 77.9267 14.7472 78.015 15.0305C78.1033 15.3138 78.1265 15.6132 78.083 15.9066V19.8419H76.8799V16.2079C76.8799 15.231 76.4542 14.7452 75.5644 14.7452C75.363 14.7358 75.162 14.77 74.9751 14.8454C74.7882 14.9207 74.6199 15.0355 74.4816 15.1818C74.3434 15.3281 74.2385 15.5025 74.1741 15.6931C74.1098 15.8836 74.0875 16.0857 74.1088 16.2857V19.8419H72.9058L72.9058 13.763Z" fill="white"/>
<path d="M80 11.3899H81.2031V19.8419H80V11.3899Z" fill="white"/>
<path d="M82.8754 16.7997C82.8371 16.4002 82.8829 15.9971 83.01 15.6163C83.1371 15.2355 83.3426 14.8854 83.6133 14.5884C83.884 14.2914 84.2139 14.0541 84.582 13.8918C84.9501 13.7294 85.3481 13.6455 85.7505 13.6455C86.153 13.6455 86.551 13.7294 86.9191 13.8918C87.2871 14.0541 87.6171 14.2914 87.8878 14.5884C88.1585 14.8854 88.364 15.2355 88.491 15.6163C88.6181 15.9971 88.664 16.4002 88.6257 16.7997C88.6647 17.1996 88.6194 17.6033 88.4926 17.9847C88.3659 18.3661 88.1605 18.7168 87.8897 19.0144C87.619 19.3119 87.2888 19.5497 86.9203 19.7124C86.5519 19.8751 86.1535 19.9592 85.7505 19.9592C85.3476 19.9592 84.9491 19.8751 84.5807 19.7124C84.2123 19.5497 83.8821 19.3119 83.6113 19.0144C83.3406 18.7168 83.1352 18.3661 83.0085 17.9847C82.8817 17.6033 82.8364 17.1996 82.8754 16.7997V16.7997ZM87.3876 16.7997C87.3876 15.482 86.794 14.7115 85.7522 14.7115C84.7064 14.7115 84.1182 15.482 84.1182 16.7997C84.1182 18.128 84.7065 18.8926 85.7522 18.8926C86.794 18.8926 87.3876 18.1227 87.3876 16.7997H87.3876Z" fill="white"/>
<path d="M89.8926 18.1229C89.8926 17.0287 90.7096 16.3978 92.1599 16.3082L93.8112 16.2133V15.6885C93.8112 15.0465 93.3855 14.684 92.5631 14.684C91.8915 14.684 91.4262 14.9298 91.2926 15.3596H90.1279C90.2509 14.3155 91.2358 13.6458 92.6187 13.6458C94.147 13.6458 95.009 14.4045 95.009 15.6885V19.842H93.8508V18.9877H93.7556C93.5624 19.2942 93.2911 19.544 92.9694 19.7117C92.6477 19.8794 92.2872 19.9589 91.9246 19.9422C91.6687 19.9687 91.41 19.9415 91.1653 19.8623C90.9206 19.783 90.6953 19.6535 90.5038 19.4821C90.3124 19.3107 90.1591 19.1012 90.0538 18.8671C89.9485 18.633 89.8936 18.3795 89.8926 18.1229V18.1229ZM93.8112 17.6035V17.0952L92.3225 17.1902C91.483 17.2462 91.1023 17.5309 91.1023 18.0669C91.1023 18.614 91.5782 18.9324 92.2327 18.9324C92.4244 18.9517 92.6181 18.9324 92.8022 18.8756C92.9864 18.8188 93.1572 18.7256 93.3044 18.6016C93.4517 18.4776 93.5725 18.3254 93.6595 18.1539C93.7466 17.9824 93.7981 17.7952 93.8112 17.6035V17.6035Z" fill="white"/>
<path d="M96.5898 16.7998C96.5898 14.879 97.5801 13.6621 99.1203 13.6621C99.5012 13.6446 99.8794 13.7356 100.21 13.9245C100.541 14.1133 100.812 14.3922 100.99 14.7286H101.08V11.3899H102.283V19.8419H101.13V18.8815H101.035C100.843 19.2156 100.563 19.491 100.226 19.678C99.8883 19.8649 99.506 19.9563 99.1203 19.9421C97.5695 19.9421 96.5898 18.7253 96.5898 16.7998ZM97.8326 16.7998C97.8326 18.0892 98.4421 18.865 99.4614 18.865C100.475 18.865 101.102 18.078 101.102 16.8051C101.102 15.5381 100.469 14.7399 99.4614 14.7399C98.4487 14.7399 97.8326 15.521 97.8326 16.7998H97.8326Z" fill="white"/>
<path d="M107.26 16.7999C107.222 16.4004 107.268 15.9973 107.395 15.6165C107.522 15.2357 107.727 14.8856 107.998 14.5886C108.269 14.2917 108.598 14.0544 108.967 13.892C109.335 13.7296 109.733 13.6458 110.135 13.6458C110.537 13.6458 110.935 13.7296 111.303 13.892C111.671 14.0544 112.001 14.2917 112.272 14.5886C112.543 14.8856 112.748 15.2357 112.875 15.6165C113.002 15.9973 113.048 16.4004 113.01 16.7999C113.049 17.1998 113.004 17.6034 112.877 17.9848C112.75 18.3662 112.545 18.717 112.274 19.0145C112.003 19.3121 111.673 19.5499 111.305 19.7126C110.936 19.8753 110.538 19.9594 110.135 19.9594C109.732 19.9594 109.334 19.8753 108.965 19.7126C108.597 19.5499 108.267 19.3121 107.996 19.0145C107.725 18.717 107.52 18.3662 107.393 17.9848C107.266 17.6034 107.221 17.1998 107.26 16.7999V16.7999ZM111.772 16.7999C111.772 15.4822 111.179 14.7116 110.137 14.7116C109.091 14.7116 108.503 15.4822 108.503 16.7999C108.503 18.1281 109.091 18.8928 110.137 18.8928C111.179 18.8928 111.772 18.1228 111.772 16.7999Z" fill="white"/>
<path d="M114.624 13.763H115.782V14.7287H115.872C116.025 14.3818 116.282 14.0911 116.608 13.8969C116.934 13.7028 117.313 13.6149 117.691 13.6456C117.988 13.6234 118.286 13.668 118.563 13.7761C118.84 13.8843 119.089 14.0531 119.291 14.2703C119.494 14.4874 119.645 14.7472 119.733 15.0305C119.822 15.3138 119.845 15.6132 119.801 15.9066V19.8419H118.598V16.2079C118.598 15.231 118.172 14.7452 117.283 14.7452C117.081 14.7358 116.88 14.77 116.693 14.8454C116.506 14.9207 116.338 15.0355 116.2 15.1818C116.062 15.3281 115.957 15.5025 115.892 15.6931C115.828 15.8836 115.806 16.0857 115.827 16.2857V19.8419H114.624V13.763Z" fill="white"/>
<path d="M126.599 12.2495V13.7907H127.92V14.8012H126.599V17.927C126.599 18.5638 126.862 18.8426 127.461 18.8426C127.615 18.8421 127.768 18.8329 127.92 18.8149V19.8143C127.704 19.8528 127.485 19.8733 127.266 19.8756C125.928 19.8756 125.395 19.4062 125.395 18.2342V14.8011H124.427V13.7906H125.395V12.2495H126.599Z" fill="white"/>
<path d="M129.563 11.3899H130.756V14.7399H130.851C131.011 14.3898 131.275 14.0974 131.608 13.9025C131.941 13.7076 132.325 13.6198 132.71 13.6509C133.005 13.6349 133.3 13.684 133.574 13.7948C133.848 13.9055 134.094 14.0752 134.294 14.2916C134.495 14.5081 134.645 14.766 134.734 15.047C134.823 15.328 134.849 15.6251 134.809 15.9171V19.8419H133.605V16.2131C133.605 15.2421 133.152 14.7504 132.302 14.7504C132.095 14.7335 131.887 14.7618 131.692 14.8334C131.497 14.9051 131.321 15.0182 131.175 15.165C131.028 15.3118 130.916 15.4887 130.846 15.6833C130.775 15.8779 130.748 16.0855 130.767 16.2915V19.8419H129.564L129.563 11.3899Z" fill="white"/>
<path d="M141.824 18.2005C141.661 18.7561 141.307 19.2367 140.824 19.5582C140.341 19.8797 139.76 20.0217 139.183 19.9592C138.781 19.9698 138.382 19.8931 138.013 19.7344C137.644 19.5758 137.314 19.3389 137.046 19.0404C136.779 18.7419 136.579 18.3888 136.462 18.0056C136.344 17.6224 136.312 17.2184 136.367 16.8215C136.313 16.4234 136.346 16.0185 136.463 15.6342C136.58 15.2499 136.779 14.8952 137.045 14.594C137.312 14.2929 137.64 14.0524 138.008 13.8887C138.376 13.7251 138.775 13.6422 139.178 13.6456C140.874 13.6456 141.897 14.8012 141.897 16.7101V17.1287H137.592V17.196C137.574 17.419 137.602 17.6436 137.675 17.8552C137.748 18.0668 137.865 18.2608 138.018 18.4248C138.171 18.5888 138.356 18.7191 138.563 18.8073C138.769 18.8956 138.991 18.9399 139.216 18.9375C139.504 18.9719 139.795 18.9202 140.053 18.789C140.312 18.6578 140.525 18.4529 140.666 18.2005L141.824 18.2005ZM137.592 16.2415H140.671C140.687 16.0374 140.659 15.8325 140.59 15.6398C140.521 15.4472 140.412 15.271 140.271 15.1227C140.13 14.9744 139.959 14.8572 139.769 14.7787C139.58 14.7001 139.376 14.662 139.171 14.6667C138.963 14.6641 138.756 14.703 138.564 14.7813C138.371 14.8595 138.196 14.9754 138.049 15.1222C137.902 15.2689 137.785 15.4436 137.707 15.6358C137.629 15.828 137.59 16.034 137.592 16.2415H137.592Z" fill="white"/>
</svg>
