<svg width="172" height="52" viewBox="0 0 172 52" fill="none" xmlns="http://www.w3.org/2000/svg">
<path d="M165.63 0H6.37037C2.85211 0 0 2.91015 0 6.5V45.5C0 49.0898 2.85211 52 6.37037 52H165.63C169.148 52 172 49.0898 172 45.5V6.5C172 2.91015 169.148 0 165.63 0Z" fill="black"/>
<path d="M60.4169 13.312C60.4378 13.7888 60.3639 14.2649 60.1997 14.7117C60.0355 15.1586 59.7843 15.5669 59.4613 15.912C59.0994 16.2933 58.6626 16.5923 58.1796 16.7895C57.6965 16.9866 57.1782 17.0774 56.6583 17.056C56.1355 17.0679 55.6159 16.9702 55.1316 16.769C54.6473 16.5677 54.2086 16.2672 53.8426 15.886C53.1002 15.1112 52.6846 14.0706 52.6846 12.987C52.6846 11.9034 53.1002 10.8629 53.8426 10.088C54.4102 9.52212 55.1291 9.13998 55.9089 8.98964C56.6887 8.8393 57.4946 8.92745 58.2255 9.24303C58.6849 9.43573 59.0947 9.73376 59.4231 10.114L58.7478 10.803C58.4948 10.492 58.1742 10.2455 57.8115 10.083C57.4488 9.92055 57.054 9.84659 56.6583 9.86703C56.1589 9.87055 55.668 9.99884 55.2284 10.2407C54.7888 10.4825 54.4139 10.8305 54.1366 11.2543C53.8592 11.6781 53.6878 12.1647 53.6374 12.6717C53.5869 13.1787 53.6589 13.6905 53.8471 14.1626C54.0353 14.6346 54.3339 15.0524 54.7169 15.3795C55.0998 15.7065 55.5555 15.9329 56.044 16.0388C56.5325 16.1447 57.039 16.1269 57.5192 15.987C57.9995 15.847 58.4388 15.5892 58.7988 15.236C59.188 14.8007 59.4136 14.2388 59.4358 13.65H56.6583V12.714H60.3659C60.3949 12.9121 60.4119 13.1118 60.4169 13.312Z" fill="white" stroke="white" stroke-width="0.2" stroke-miterlimit="10"/>
<path d="M66.2516 10.0621H62.8116V12.5321H65.9459V13.4681H62.8116V15.9381H66.2516V16.9001H61.8179V9.1001H66.2516V10.0621Z" fill="white" stroke="white" stroke-width="0.2" stroke-miterlimit="10"/>
<path d="M70.431 16.9001H69.45V10.0621H67.3096V9.1001H72.6225V10.0621H70.431V16.9001Z" fill="white" stroke="white" stroke-width="0.2" stroke-miterlimit="10"/>
<path d="M76.3682 16.9001V9.1001H77.3492V16.9001H76.3682Z" fill="white" stroke="white" stroke-width="0.2" stroke-miterlimit="10"/>
<path d="M81.7064 16.9001H80.7254V10.0621H78.585V9.1001H83.8341V10.0621H81.7064V16.9001Z" fill="white" stroke="white" stroke-width="0.2" stroke-miterlimit="10"/>
<path d="M93.7848 15.886C93.4169 16.2618 92.9799 16.5599 92.4989 16.7633C92.018 16.9666 91.5025 17.0713 90.9819 17.0713C90.4613 17.0713 89.9457 16.9666 89.4648 16.7633C88.9838 16.5599 88.5469 16.2618 88.1789 15.886C87.4586 15.1048 87.0576 14.0726 87.0576 13C87.0576 11.9274 87.4586 10.8952 88.1789 10.114C88.539 9.72763 88.9745 9.42269 89.4573 9.21891C89.9402 9.01513 90.4595 8.91704 90.9819 8.93099C91.5035 8.92257 92.0212 9.02319 92.5033 9.22664C92.9853 9.43009 93.4215 9.73207 93.7848 10.114C94.1512 10.4942 94.4391 10.9455 94.6317 11.4412C94.8243 11.9369 94.9176 12.4669 94.906 13C94.9227 13.5337 94.8318 14.0653 94.639 14.5617C94.4461 15.0582 94.1554 15.5089 93.7848 15.886ZM88.9051 15.236C89.1765 15.5166 89.4999 15.7395 89.8564 15.8916C90.2129 16.0437 90.5955 16.122 90.9819 16.122C91.3683 16.122 91.7508 16.0437 92.1074 15.8916C92.4639 15.7395 92.7872 15.5166 93.0586 15.236C93.6084 14.6265 93.9135 13.8284 93.9135 13C93.9135 12.1716 93.6084 11.3735 93.0586 10.764C92.7872 10.4834 92.4639 10.2605 92.1074 10.1084C91.7508 9.95633 91.3683 9.87801 90.9819 9.87801C90.5955 9.87801 90.2129 9.95633 89.8564 10.1084C89.4999 10.2605 89.1765 10.4834 88.9051 10.764C88.3554 11.3735 88.0502 12.1716 88.0502 13C88.0502 13.8284 88.3554 14.6265 88.9051 15.236Z" fill="white" stroke="white" stroke-width="0.2" stroke-miterlimit="10"/>
<path d="M96.2944 16.9001V9.1001H97.4793L101.2 15.1711V13.6631V9.1001H102.181V16.9001H101.161L97.2755 10.5431V12.0381V16.9001H96.2944Z" fill="white" stroke="white" stroke-width="0.2" stroke-miterlimit="10"/>
<path d="M86.8154 28.2749C85.742 28.2775 84.6934 28.6048 83.8022 29.2155C82.9111 29.8262 82.2174 30.6927 81.8089 31.7057C81.4005 32.7186 81.2955 33.8323 81.5074 34.9061C81.7193 35.9799 82.2385 36.9654 82.9993 37.7381C83.7602 38.5108 84.7285 39.0359 85.7818 39.247C86.8352 39.4582 87.9262 39.3459 88.917 38.9244C89.9078 38.5029 90.7538 37.791 91.3481 36.8789C91.9424 35.9667 92.2583 34.8953 92.2557 33.7999C92.2661 33.0693 92.1323 32.3439 91.8623 31.6671C91.5922 30.9903 91.1915 30.3758 90.6839 29.8603C90.1762 29.3448 89.5722 28.9388 88.9076 28.6664C88.243 28.394 87.5315 28.2609 86.8154 28.2749ZM86.8154 37.154C86.1575 37.2009 85.5009 37.0448 84.931 36.7059C84.3612 36.3671 83.9044 35.8612 83.6201 35.2539C83.3358 34.6467 83.2371 33.9662 83.3368 33.3009C83.4365 32.6357 83.7301 32.0164 84.1793 31.5237C84.6286 31.0309 85.2127 30.6875 85.8558 30.538C86.4989 30.3884 87.1711 30.4398 87.7852 30.6853C88.3994 30.9308 88.9269 31.3591 89.2993 31.9146C89.6716 32.47 89.8716 33.127 89.8732 33.7999C89.8937 34.2264 89.8304 34.6527 89.6869 35.0537C89.5433 35.4547 89.3226 35.8224 89.0376 36.135C88.7526 36.4476 88.4092 36.6988 88.0275 36.8738C87.6459 37.0488 87.2337 37.1441 86.8154 37.154ZM74.9411 28.2749C73.8676 28.2775 72.819 28.6048 71.9278 29.2155C71.0367 29.8262 70.343 30.6927 69.9346 31.7057C69.5261 32.7186 69.4212 33.8323 69.6331 34.9061C69.845 35.9799 70.3641 36.9654 71.125 37.7381C71.8858 38.5108 72.8541 39.0359 73.9075 39.247C74.9608 39.4582 76.0518 39.3459 77.0426 38.9244C78.0334 38.5029 78.8794 37.791 79.4737 36.8789C80.068 35.9667 80.3839 34.8953 80.3814 33.7999C80.3917 33.0693 80.2579 32.3439 79.9879 31.6671C79.7179 30.9903 79.3171 30.3758 78.8095 29.8603C78.3019 29.3448 77.6978 28.9388 77.0332 28.6664C76.3686 28.394 75.6571 28.2609 74.9411 28.2749ZM74.9411 37.154C74.2831 37.2009 73.6265 37.0448 73.0567 36.7059C72.4868 36.3671 72.03 35.8612 71.7457 35.2539C71.4614 34.6467 71.3627 33.9662 71.4624 33.3009C71.5622 32.6357 71.8557 32.0164 72.305 31.5237C72.7542 31.0309 73.3383 30.6875 73.9814 30.538C74.6245 30.3884 75.2968 30.4398 75.9109 30.6853C76.525 30.9308 77.0525 31.3591 77.4249 31.9146C77.7973 32.47 77.9972 33.127 77.9988 33.7999C78.0194 34.2264 77.956 34.6527 77.8125 35.0537C77.669 35.4547 77.4482 35.8224 77.1632 36.135C76.8782 36.4476 76.5348 36.6988 76.1532 36.8738C75.7715 37.0488 75.3594 37.1441 74.9411 37.154ZM60.8243 29.978V32.3179H66.3283C66.242 33.4201 65.793 34.4601 65.0543 35.2689C64.5021 35.8429 63.8381 36.2922 63.1051 36.5878C62.372 36.8834 61.5864 37.0187 60.7988 36.9849C59.1769 36.9849 57.6214 36.3275 56.4745 35.1573C55.3276 33.9871 54.6833 32.3999 54.6833 30.745C54.6833 29.09 55.3276 27.5028 56.4745 26.3326C57.6214 25.1624 59.1769 24.5049 60.7988 24.5049C62.3538 24.4814 63.8552 25.0839 64.9778 26.1819L66.5959 24.5309C65.8365 23.7646 64.9349 23.1606 63.9438 22.7543C62.9528 22.3481 61.8922 22.1477 60.8243 22.1649C59.6917 22.12 58.5618 22.3088 57.5023 22.72C56.4429 23.1313 55.4757 23.7565 54.6588 24.5583C53.8418 25.36 53.1919 26.3218 52.748 27.386C52.304 28.4502 52.0752 29.5949 52.0752 30.7514C52.0752 31.908 52.304 33.0527 52.748 34.1169C53.1919 35.1811 53.8418 36.1429 54.6588 36.9446C55.4757 37.7464 56.4429 38.3716 57.5023 38.7829C58.5618 39.1941 59.6917 39.3829 60.8243 39.3379C61.9142 39.3824 63.0009 39.191 64.0132 38.7766C65.0255 38.3621 65.9404 37.7338 66.6978 36.9329C68.0357 35.4333 68.7486 33.4609 68.6854 31.4339C68.6899 30.9461 68.6516 30.4588 68.5707 29.978H60.8243ZM118.553 31.7979C118.22 30.8005 117.599 29.9296 116.771 29.3005C115.943 28.6713 114.947 28.3137 113.915 28.2749C113.218 28.2736 112.528 28.418 111.888 28.6994C111.248 28.9809 110.672 29.3932 110.194 29.911C109.716 30.4289 109.348 31.0412 109.111 31.71C108.875 32.3789 108.775 33.0902 108.819 33.7999C108.808 34.9867 109.173 36.1451 109.861 37.1023C110.549 38.0595 111.521 38.764 112.634 39.1106C113.746 39.4573 114.938 39.4274 116.033 39.0256C117.127 38.6237 118.065 37.8714 118.706 36.8809L116.858 35.5809C116.583 36.0493 116.192 36.4361 115.725 36.7029C115.258 36.9697 114.731 37.1073 114.195 37.1019C113.643 37.1252 113.097 36.9775 112.628 36.6782C112.16 36.3789 111.791 35.942 111.571 35.4249L118.82 32.37L118.553 31.7979ZM111.163 33.6439C111.137 33.2401 111.191 32.8351 111.32 32.4526C111.45 32.0702 111.653 31.7179 111.917 31.4164C112.182 31.115 112.503 30.8704 112.861 30.6971C113.219 30.5238 113.608 30.4251 114.004 30.4069C114.415 30.3814 114.823 30.48 115.179 30.6904C115.535 30.9009 115.822 31.2138 116.004 31.5899L111.163 33.6439ZM105.277 38.9999H107.659V22.7499H105.277V38.9999ZM101.378 29.5099H101.289C100.933 29.0964 100.494 28.7661 100.001 28.5417C99.5086 28.3174 98.9744 28.2042 98.435 28.2099C97.0427 28.2788 95.7297 28.8917 94.7682 29.9215C93.8067 30.9513 93.2703 32.3191 93.2703 33.7415C93.2703 35.1638 93.8067 36.5316 94.7682 37.5614C95.7297 38.5912 97.0427 39.2041 98.435 39.2729C98.9752 39.284 99.511 39.1732 100.004 38.9485C100.498 38.7238 100.936 38.3907 101.289 37.9729H101.378V38.7659C101.378 40.8849 100.27 42.0159 98.486 42.0159C97.8901 42.0026 97.3116 41.8089 96.8239 41.4593C96.3361 41.1098 95.9612 40.6203 95.7467 40.0529L93.6827 40.9239C94.0643 41.9019 94.7278 42.7386 95.5854 43.3235C96.443 43.9085 97.4545 44.2141 98.486 44.1999C101.276 44.1999 103.582 42.5229 103.582 38.4409V28.5999H101.378V29.5099ZM98.6388 37.154C97.8041 37.1008 97.0205 36.7251 96.4478 36.1031C95.8751 35.4812 95.5563 34.6599 95.5563 33.8064C95.5563 32.953 95.8751 32.1317 96.4478 31.5098C97.0205 30.8878 97.8041 30.5121 98.6388 30.4589C99.0469 30.4769 99.4472 30.5784 99.8159 30.7575C100.185 30.9365 100.514 31.1894 100.785 31.5011C101.056 31.8128 101.263 32.177 101.394 32.5719C101.524 32.9668 101.575 33.3845 101.544 33.7999C101.578 34.2168 101.53 34.6366 101.401 35.0338C101.272 35.4311 101.066 35.7975 100.795 36.1111C100.523 36.4246 100.192 36.6787 99.8214 36.8579C99.4509 37.0372 99.0486 37.1379 98.6388 37.154ZM129.714 22.7499H124.006V38.9999H126.388V32.8379H129.714C130.393 32.8877 131.074 32.7942 131.716 32.5633C132.358 32.3324 132.947 31.9689 133.445 31.4957C133.944 31.0224 134.341 30.4495 134.613 29.8126C134.885 29.1758 135.025 28.4886 135.025 27.7939C135.025 27.0993 134.885 26.4121 134.613 25.7753C134.341 25.1384 133.944 24.5655 133.445 24.0922C132.947 23.619 132.358 23.2555 131.716 23.0246C131.074 22.7937 130.393 22.7002 129.714 22.7499ZM129.714 30.5499H126.388V25.0119H129.764C130.123 25.0119 130.477 25.0839 130.808 25.2237C131.139 25.3635 131.439 25.5684 131.692 25.8268C131.946 26.0851 132.146 26.3918 132.283 26.7293C132.42 27.0669 132.491 27.4286 132.491 27.7939C132.491 28.1593 132.42 28.521 132.283 28.8586C132.146 29.1961 131.946 29.5028 131.692 29.7611C131.439 30.0195 131.139 30.2244 130.808 30.3642C130.477 30.504 130.123 30.5759 129.764 30.5759L129.714 30.5499ZM144.416 28.2229C143.549 28.1684 142.684 28.3745 141.93 28.8158C141.176 29.2571 140.566 29.9142 140.174 30.7059L142.276 31.603C142.488 31.2122 142.807 30.8925 143.194 30.6826C143.58 30.4727 144.018 30.3814 144.455 30.42C144.757 30.3839 145.063 30.4097 145.356 30.4958C145.649 30.5819 145.921 30.7265 146.159 30.9214C146.396 31.1162 146.593 31.3573 146.738 31.6305C146.882 31.9038 146.973 32.2038 147.003 32.5129V32.6689C146.237 32.258 145.384 32.0439 144.518 32.045C142.25 32.045 139.932 33.3449 139.932 35.7109C139.954 36.2138 140.075 36.707 140.288 37.1612C140.501 37.6153 140.801 38.0212 141.171 38.3546C141.54 38.6881 141.972 38.9424 142.44 39.1024C142.908 39.2624 143.402 39.3248 143.894 39.2859C144.492 39.3197 145.088 39.1906 145.621 38.9119C146.153 38.6332 146.604 38.2149 146.926 37.6999H147.003V38.9999H149.296V32.7469C149.296 29.8999 147.181 28.2489 144.467 28.2489L144.416 28.2229ZM144.123 37.1279C143.346 37.1279 142.263 36.7249 142.263 35.7499C142.263 34.4499 143.614 34.0079 144.811 34.0079C145.568 33.9889 146.316 34.1775 146.977 34.554C146.897 35.2599 146.569 35.9124 146.054 36.3905C145.538 36.8685 144.871 37.1398 144.174 37.154L144.123 37.1279ZM157.654 28.5999L154.927 35.6459H154.851L152.023 28.5999H149.474L153.717 38.454L151.296 43.927H153.781L160.304 28.5999H157.654ZM136.25 38.9999H138.619V22.7499H136.25V38.9999Z" fill="white"/>
<path d="M13.3016 9.80218C12.8817 10.3087 12.6675 10.9598 12.7027 11.6222V40.3782C12.6594 41.0417 12.8746 41.6958 13.3016 42.1982L13.3907 42.3022L29.1765 26.1952V25.8052L13.3907 9.71118L13.3016 9.80218Z" fill="url(#paint0_linear_1_2839)"/>
<path d="M34.4 31.564L29.1763 26.195V25.805L34.4 20.436L34.5146 20.514L40.7703 24.128C42.554 25.155 42.554 26.845 40.7703 27.885L34.5401 31.499L34.4 31.564Z" fill="url(#paint1_linear_1_2839)"/>
<path d="M34.5528 31.486L29.1762 26L13.3013 42.198C13.6613 42.525 14.1221 42.7131 14.6038 42.7297C15.0855 42.7463 15.5578 42.5904 15.9386 42.289L34.5528 31.486Z" fill="url(#paint2_linear_1_2839)"/>
<path d="M34.5528 20.5142L15.9386 9.72415C15.5602 9.41854 15.0884 9.25883 14.606 9.2731C14.1236 9.28736 13.6617 9.4747 13.3013 9.80216L29.1762 26.0002L34.5528 20.5142Z" fill="url(#paint3_linear_1_2839)"/>
<path opacity="0.2" d="M34.3999 31.3689L15.9386 42.0939C15.5716 42.3765 15.1243 42.5294 14.6645 42.5294C14.2047 42.5294 13.7575 42.3765 13.3905 42.0939L13.3013 42.1849L13.3905 42.2889C13.7575 42.5715 14.2047 42.7244 14.6645 42.7244C15.1243 42.7244 15.5716 42.5715 15.9386 42.2889L34.5528 31.4859L34.3999 31.3689Z" fill="black"/>
<path opacity="0.12" d="M13.3013 42.0161C12.8921 41.5005 12.6915 40.8447 12.7407 40.1831V40.3781C12.6974 41.0416 12.9126 41.6957 13.3395 42.1981L13.4287 42.1071L13.3013 42.0161Z" fill="black"/>
<path opacity="0.12" d="M40.7703 27.69L34.3999 31.369L34.5146 31.486L40.7703 27.872C41.1395 27.7127 41.4599 27.4547 41.6975 27.1253C41.9352 26.7958 42.0814 26.4071 42.1208 26C42.0411 26.3699 41.8774 26.7156 41.6428 27.0092C41.4083 27.3027 41.1094 27.5359 40.7703 27.69Z" fill="black"/>
<path opacity="0.25" d="M15.9388 9.90617L40.7705 24.3102C41.1096 24.4643 41.4085 24.6975 41.6431 24.991C41.8776 25.2846 42.0414 25.6302 42.121 26.0002C42.0816 25.5931 41.9354 25.2043 41.6978 24.8749C41.4601 24.5454 41.1397 24.2875 40.7705 24.1282L15.9388 9.72417C14.1678 8.68417 12.7026 9.54217 12.7026 11.6222V11.8172C12.7409 9.73717 14.1678 8.87917 15.9388 9.90617Z" fill="white"/>
<defs>
<linearGradient id="paint0_linear_1_2839" x1="27.775" y1="11.3232" x2="5.96547" y2="32.6978" gradientUnits="userSpaceOnUse">
<stop stop-color="#00A0FF"/>
<stop offset="0.01" stop-color="#00A1FF"/>
<stop offset="0.26" stop-color="#00BEFF"/>
<stop offset="0.51" stop-color="#00D2FF"/>
<stop offset="0.76" stop-color="#00DFFF"/>
<stop offset="1" stop-color="#00E3FF"/>
</linearGradient>
<linearGradient id="paint1_linear_1_2839" x1="43.1019" y1="26" x2="12.2821" y2="26" gradientUnits="userSpaceOnUse">
<stop stop-color="#FFE000"/>
<stop offset="0.41" stop-color="#FFBD00"/>
<stop offset="0.78" stop-color="#FFA500"/>
<stop offset="1" stop-color="#FF9C00"/>
</linearGradient>
<linearGradient id="paint2_linear_1_2839" x1="31.6352" y1="28.99" x2="2.05345" y2="57.969" gradientUnits="userSpaceOnUse">
<stop stop-color="#FF3A44"/>
<stop offset="1" stop-color="#C31162"/>
</linearGradient>
<linearGradient id="paint3_linear_1_2839" x1="9.30068" y1="0.234156" x2="22.506" y2="13.1761" gradientUnits="userSpaceOnUse">
<stop stop-color="#32A071"/>
<stop offset="0.07" stop-color="#2DA771"/>
<stop offset="0.48" stop-color="#15CF74"/>
<stop offset="0.8" stop-color="#06E775"/>
<stop offset="1" stop-color="#00F076"/>
</linearGradient>
</defs>
</svg>
